<svg width="392" height="481" viewBox="0 0 392 481" fill="none" xmlns="http://www.w3.org/2000/svg">
<path d="M25.1803 451.799L30.7103 459.299L15.4786 479.988H4.42462L25.1803 451.799ZM62.547 479.988H51.5051L33.4994 455.537L27.9694 448.034L27.1652 446.938L6.02399 418.264H17.087L32.6801 439.45L33.4843 440.543L34.2885 439.45L49.8816 418.273H60.9386L39.8155 446.956L39.0113 448.049L62.547 479.988Z" fill="#E6E6E6"/>
<path d="M94.8778 433.962L100.727 444.63L81.1491 480H69.4023L94.8778 433.962ZM137.949 480H126.202L103.685 439.308L97.8054 428.688L103.655 418.064L109.534 428.685L137.949 480Z" fill="#E6E6E6"/>
<path d="M191.734 418.266V479.711L182.828 470.816L151.648 439.627L142.747 430.727V418.14L182.828 458.226V418.266H191.734ZM142.747 437.04L151.648 445.94V480.015H142.747V437.04Z" fill="#E6E6E6"/>
<path d="M256.197 449.265C256.195 456.822 253.429 464.116 248.422 469.775C243.414 475.434 236.511 479.066 229.011 479.988H200.623V431.669H209.523V471.099H228.414C233.848 470.306 238.791 467.515 242.277 463.272C245.763 459.028 247.541 453.638 247.264 448.153C246.988 442.669 244.676 437.484 240.781 433.613C236.885 429.742 231.687 427.463 226.201 427.221H200.623V418.287H225.598C232.994 418.371 240.115 421.1 245.673 425.979C251.231 430.859 254.858 437.567 255.899 444.889C256.103 446.339 256.202 447.801 256.197 449.265Z" fill="#E6E6E6"/>
<path d="M320.696 418.29V427.19H266.125V418.29H320.696ZM275.025 471.099H320.696V480H266.125V431.642H275.025V442.461H314.717V451.362H275.025V471.099Z" fill="#E6E6E6"/>
<path d="M387.074 480H376.65L358.879 450.835L358.391 450.033L358.282 450.067C358.123 450.109 357.981 450.154 357.807 450.193L357.647 450.235L356.957 450.401C356.427 450.521 355.897 450.63 355.361 450.72C355.21 450.747 355.06 450.774 354.903 450.795L354.659 450.835C354.458 450.865 354.257 450.892 354.057 450.916L353.801 450.949C353.59 450.976 353.379 451 353.165 451.021C352.951 451.042 352.653 451.073 352.391 451.088H352.367C352.129 451.106 351.888 451.121 351.65 451.133H351.521L350.999 451.154H350.671H350.036H338.548V479.976H329.644V418.112H380.836C380.886 418.831 380.913 419.558 380.915 420.293C380.919 424.385 380.108 428.437 378.529 432.212C376.951 435.987 374.635 439.41 371.719 442.281C371.333 442.66 370.938 443.029 370.532 443.389C370.397 443.512 370.261 443.633 370.123 443.747L370.074 443.793L369.532 444.241C369.406 444.347 369.276 444.452 369.144 444.543C369.011 444.633 368.957 444.69 368.867 444.759C368.523 445.024 368.176 445.28 367.824 445.527C367.659 445.648 367.493 445.759 367.321 445.877L367.294 445.895C367.138 446 366.993 446.106 366.821 446.196L366.743 446.247L366.571 446.356L367.641 448.112L387.074 480ZM365.466 435.943C367.995 433.455 369.882 430.391 370.966 427.013H338.548V442.278H350.018C355.798 442.296 361.351 440.022 365.457 435.952L365.466 435.943Z" fill="#E6E6E6"/>
<path d="M244.035 190.713H179.747C179.211 190.713 178.686 190.57 178.224 190.299C177.762 190.028 177.381 189.638 177.12 189.171L107.652 65.1102C107.39 64.6431 107.008 64.2542 106.546 63.9837C106.084 63.7131 105.558 63.5707 105.022 63.5711H56.4056C55.6067 63.5711 54.8406 63.8884 54.2758 64.4533C53.7109 65.0181 53.3936 65.7842 53.3936 66.5831V124.13C53.3936 124.929 53.7109 125.695 54.2758 126.26C54.8406 126.825 55.6067 127.142 56.4056 127.142H87.2243C87.7598 127.142 88.2858 127.284 88.748 127.555C89.2102 127.825 89.5919 128.214 89.8537 128.681L122.082 186.228C122.339 186.687 122.472 187.204 122.467 187.73C122.462 188.255 122.319 188.77 122.054 189.223C121.788 189.677 121.409 190.053 120.953 190.314C120.497 190.576 119.981 190.713 119.456 190.713H3.01199C2.21316 190.713 1.44705 190.396 0.882192 189.831C0.317334 189.266 0 188.5 0 187.701L0 3.01199C0 2.21316 0.317334 1.44705 0.882192 0.882192C1.44705 0.317334 2.21316 0 3.01199 0L140.621 0C141.156 0.000151846 141.681 0.142819 142.143 0.413328C142.604 0.683838 142.986 1.07243 143.247 1.53913L246.664 186.228C246.921 186.687 247.054 187.205 247.049 187.73C247.044 188.256 246.901 188.771 246.635 189.225C246.369 189.678 245.989 190.054 245.533 190.315C245.077 190.576 244.56 190.714 244.035 190.713Z" fill="#E6E6E6"/>
<path d="M158.831 170.726L167.512 186.229C167.769 186.687 167.902 187.205 167.896 187.731C167.891 188.256 167.749 188.771 167.483 189.225C167.217 189.678 166.837 190.054 166.381 190.315C165.925 190.577 165.408 190.714 164.882 190.713H147.524C146.999 190.714 146.482 190.577 146.026 190.315C145.57 190.054 145.19 189.678 144.924 189.225C144.658 188.771 144.515 188.256 144.51 187.731C144.505 187.205 144.638 186.687 144.895 186.229L153.575 170.726C153.837 170.259 154.218 169.87 154.68 169.599C155.142 169.328 155.668 169.186 156.203 169.186C156.739 169.186 157.265 169.328 157.726 169.599C158.188 169.87 158.57 170.259 158.831 170.726Z" fill="#0053BC"/>
<path d="M391.559 3.01199V187.701C391.559 188.5 391.242 189.266 390.677 189.831C390.112 190.396 389.346 190.713 388.547 190.713H272.109C271.584 190.713 271.068 190.576 270.612 190.314C270.156 190.053 269.777 189.677 269.511 189.223C269.246 188.77 269.103 188.255 269.098 187.73C269.093 187.204 269.226 186.687 269.483 186.228L301.711 128.681C301.973 128.214 302.355 127.825 302.817 127.555C303.279 127.284 303.805 127.142 304.341 127.142H335.159C335.958 127.142 336.724 126.825 337.289 126.26C337.854 125.695 338.171 124.929 338.171 124.13V66.5831C338.171 65.7842 337.854 65.0181 337.289 64.4533C336.724 63.8884 335.958 63.5711 335.159 63.5711H286.537C286.001 63.5707 285.475 63.7131 285.013 63.9837C284.551 64.2542 284.169 64.6431 283.907 65.1102L237.983 147.127C237.722 147.594 237.34 147.983 236.879 148.254C236.417 148.524 235.891 148.667 235.356 148.667C234.82 148.667 234.294 148.524 233.832 148.254C233.371 147.983 232.989 147.594 232.728 147.127L200.599 89.7212C200.347 89.2716 200.215 88.765 200.215 88.2498C200.215 87.7346 200.347 87.228 200.599 86.7785L248.327 1.53913C248.587 1.07465 248.966 0.687493 249.425 0.41712C249.883 0.146746 250.406 0.00281771 250.938 0H388.547C389.346 0 390.112 0.317334 390.677 0.882192C391.242 1.44705 391.559 2.21316 391.559 3.01199Z" fill="#0053BC"/>
<path d="M158.831 170.726L167.512 186.229C167.769 186.687 167.902 187.205 167.896 187.731C167.891 188.256 167.749 188.771 167.483 189.225C167.217 189.678 166.837 190.054 166.381 190.315C165.925 190.577 165.408 190.714 164.882 190.713H147.524C146.999 190.714 146.482 190.577 146.026 190.315C145.57 190.054 145.19 189.678 144.924 189.225C144.658 188.771 144.515 188.256 144.51 187.731C144.505 187.205 144.638 186.687 144.895 186.229L153.575 170.726C153.837 170.259 154.218 169.87 154.68 169.599C155.142 169.328 155.668 169.186 156.203 169.186C156.739 169.186 157.265 169.328 157.726 169.599C158.188 169.87 158.57 170.259 158.831 170.726Z" fill="#0053BC"/>
<path d="M391.559 3.01199V187.701C391.559 188.5 391.242 189.266 390.677 189.831C390.112 190.396 389.346 190.713 388.547 190.713H272.109C271.584 190.713 271.068 190.576 270.612 190.314C270.156 190.053 269.777 189.677 269.511 189.223C269.246 188.77 269.103 188.255 269.098 187.73C269.093 187.204 269.226 186.687 269.483 186.228L301.711 128.681C301.973 128.214 302.355 127.825 302.817 127.555C303.279 127.284 303.805 127.142 304.341 127.142H335.159C335.958 127.142 336.724 126.825 337.289 126.26C337.854 125.695 338.171 124.929 338.171 124.13V66.5831C338.171 65.7842 337.854 65.0181 337.289 64.4533C336.724 63.8884 335.958 63.5711 335.159 63.5711H286.537C286.001 63.5707 285.475 63.7131 285.013 63.9837C284.551 64.2542 284.169 64.6431 283.907 65.1102L237.983 147.127C237.722 147.594 237.34 147.983 236.879 148.254C236.417 148.524 235.891 148.667 235.356 148.667C234.82 148.667 234.294 148.524 233.832 148.254C233.371 147.983 232.989 147.594 232.728 147.127L200.599 89.7212C200.347 89.2716 200.215 88.765 200.215 88.2498C200.215 87.7346 200.347 87.228 200.599 86.7785L248.327 1.53913C248.587 1.07465 248.966 0.687493 249.425 0.41712C249.883 0.146746 250.406 0.00281771 250.938 0H388.547C389.346 0 390.112 0.317334 390.677 0.882192C391.242 1.44705 391.559 2.21316 391.559 3.01199Z" fill="#0053BC"/>
<path d="M147.524 200.846H211.812C212.348 200.846 212.873 200.989 213.335 201.26C213.796 201.531 214.178 201.921 214.439 202.388L283.907 326.449C284.169 326.916 284.551 327.305 285.013 327.575C285.475 327.846 286.001 327.988 286.537 327.988H335.153C335.952 327.988 336.718 327.671 337.283 327.106C337.848 326.541 338.165 325.775 338.165 324.976V267.429C338.165 266.63 337.848 265.864 337.283 265.299C336.718 264.734 335.952 264.417 335.153 264.417H304.335C303.799 264.417 303.273 264.275 302.811 264.004C302.349 263.734 301.967 263.345 301.705 262.878L269.477 205.331C269.22 204.872 269.087 204.355 269.092 203.829C269.097 203.304 269.24 202.789 269.505 202.336C269.771 201.882 270.15 201.506 270.606 201.245C271.062 200.983 271.578 200.846 272.103 200.846H388.547C389.346 200.846 390.112 201.163 390.677 201.728C391.242 202.293 391.559 203.059 391.559 203.858V388.547C391.559 389.346 391.242 390.112 390.677 390.677C390.112 391.242 389.346 391.559 388.547 391.559H250.938C250.403 391.559 249.878 391.416 249.416 391.146C248.954 390.875 248.573 390.487 248.312 390.02L144.895 205.331C144.638 204.872 144.505 204.354 144.51 203.829C144.515 203.303 144.658 202.788 144.924 202.334C145.19 201.881 145.57 201.505 146.026 201.244C146.482 200.983 146.999 200.845 147.524 200.846Z" fill="#E6E6E6"/>
<path d="M232.728 220.83L224.047 205.331C223.79 204.872 223.657 204.354 223.662 203.829C223.668 203.303 223.81 202.788 224.076 202.334C224.342 201.881 224.722 201.505 225.178 201.244C225.634 200.983 226.151 200.845 226.676 200.846H244.035C244.56 200.845 245.077 200.983 245.533 201.244C245.989 201.505 246.369 201.881 246.635 202.334C246.901 202.788 247.043 203.303 247.049 203.829C247.054 204.354 246.921 204.872 246.664 205.331L237.983 220.83C237.722 221.297 237.34 221.686 236.879 221.957C236.417 222.228 235.891 222.371 235.356 222.371C234.82 222.371 234.294 222.228 233.832 221.957C233.371 221.686 232.989 221.297 232.728 220.83Z" fill="#0053BC"/>
<path d="M0 388.547V203.858C0 203.059 0.317334 202.293 0.882192 201.728C1.44705 201.163 2.21316 200.846 3.01199 200.846H119.45C119.975 200.846 120.491 200.983 120.947 201.245C121.403 201.506 121.782 201.882 122.048 202.336C122.313 202.789 122.456 203.304 122.461 203.829C122.465 204.355 122.333 204.872 122.076 205.331L89.8477 262.878C89.5858 263.345 89.2041 263.734 88.7419 264.004C88.2797 264.275 87.7538 264.417 87.2182 264.417H56.4056C55.6067 264.417 54.8406 264.734 54.2758 265.299C53.7109 265.864 53.3936 266.63 53.3936 267.429V324.976C53.3936 325.775 53.7109 326.541 54.2758 327.106C54.8406 327.671 55.6067 327.988 56.4056 327.988H105.022C105.558 327.988 106.084 327.846 106.546 327.575C107.008 327.305 107.39 326.916 107.652 326.449L153.575 244.432C153.837 243.965 154.218 243.576 154.68 243.305C155.142 243.035 155.668 242.892 156.203 242.892C156.739 242.892 157.264 243.035 157.726 243.305C158.188 243.576 158.57 243.965 158.831 244.432L190.975 301.838C191.227 302.287 191.359 302.794 191.359 303.309C191.359 303.824 191.227 304.331 190.975 304.78L143.247 390.02C142.986 390.487 142.604 390.875 142.143 391.146C141.681 391.416 141.156 391.559 140.621 391.559H3.01199C2.21316 391.559 1.44705 391.242 0.882192 390.677C0.317334 390.112 0 389.346 0 388.547H0Z" fill="#0053BC"/>
<path d="M232.728 220.83L224.047 205.331C223.79 204.872 223.657 204.354 223.662 203.829C223.668 203.303 223.81 202.788 224.076 202.334C224.342 201.881 224.722 201.505 225.178 201.244C225.634 200.983 226.151 200.845 226.676 200.846H244.035C244.56 200.845 245.077 200.983 245.533 201.244C245.989 201.505 246.369 201.881 246.635 202.334C246.901 202.788 247.043 203.303 247.049 203.829C247.054 204.354 246.921 204.872 246.664 205.331L237.983 220.83C237.722 221.297 237.34 221.686 236.879 221.957C236.417 222.228 235.891 222.371 235.356 222.371C234.82 222.371 234.294 222.228 233.832 221.957C233.371 221.686 232.989 221.297 232.728 220.83Z" fill="#0053BC"/>
<path d="M0 388.547V203.858C0 203.059 0.317334 202.293 0.882192 201.728C1.44705 201.163 2.21316 200.846 3.01199 200.846H119.45C119.975 200.846 120.491 200.983 120.947 201.245C121.403 201.506 121.782 201.882 122.048 202.336C122.313 202.789 122.456 203.304 122.461 203.829C122.465 204.355 122.333 204.872 122.076 205.331L89.8477 262.878C89.5858 263.345 89.2041 263.734 88.7419 264.004C88.2797 264.275 87.7538 264.417 87.2182 264.417H56.4056C55.6067 264.417 54.8406 264.734 54.2758 265.299C53.7109 265.864 53.3936 266.63 53.3936 267.429V324.976C53.3936 325.775 53.7109 326.541 54.2758 327.106C54.8406 327.671 55.6067 327.988 56.4056 327.988H105.022C105.558 327.988 106.084 327.846 106.546 327.575C107.008 327.305 107.39 326.916 107.652 326.449L153.575 244.432C153.837 243.965 154.218 243.576 154.68 243.305C155.142 243.035 155.668 242.892 156.203 242.892C156.739 242.892 157.264 243.035 157.726 243.305C158.188 243.576 158.57 243.965 158.831 244.432L190.975 301.838C191.227 302.287 191.359 302.794 191.359 303.309C191.359 303.824 191.227 304.331 190.975 304.78L143.247 390.02C142.986 390.487 142.604 390.875 142.143 391.146C141.681 391.416 141.156 391.559 140.621 391.559H3.01199C2.21316 391.559 1.44705 391.242 0.882192 390.677C0.317334 390.112 0 389.346 0 388.547H0Z" fill="#0053BC"/>
</svg>
